<?xml version="1.0" standalone="no"?>
<!DOCTYPE svg PUBLIC "-//W3C//DTD SVG 20010904//EN"
 "http://www.w3.org/TR/2001/REC-SVG-20010904/DTD/svg10.dtd">
<svg version="1.0" xmlns="http://www.w3.org/2000/svg"
 width="590.000000pt" height="482.000000pt" viewBox="0 0 590.000000 482.000000"
 preserveAspectRatio="xMidYMid meet">

<g transform="translate(0.000000,482.000000) scale(0.100000,-0.100000)"
fill="#000000" stroke="none">
<path d="M2775 4134 c-407 -90 -703 -449 -706 -854 l-1 -99 -36 24 c-191 126
-465 102 -623 -55 -139 -138 -132 -326 15 -406 l28 -16 -67 -23 c-192 -68
-327 -205 -380 -390 -44 -149 15 -382 133 -532 53 -66 169 -143 263 -174 77
-25 212 -33 289 -16 l35 7 -3 -78 c-11 -274 175 -525 446 -598 76 -20 216 -20
289 1 32 9 82 29 111 45 28 15 52 26 52 24 0 -3 -22 -48 -49 -102 -27 -53 -52
-114 -56 -134 -10 -51 19 -131 60 -172 34 -35 109 -66 156 -66 49 0 155 39
203 75 l46 36 33 -25 c146 -112 333 -106 408 12 55 87 46 175 -28 285 -19 29
-39 62 -44 75 -8 22 -7 21 49 -7 89 -45 156 -61 255 -61 108 0 189 20 281 68
137 72 229 182 282 337 22 66 27 99 28 183 1 87 3 101 16 96 31 -14 184 -16
239 -5 31 7 97 32 147 56 76 37 102 56 158 116 110 119 170 267 170 424 0 148
-54 276 -159 374 -72 67 -131 103 -234 141 l-75 27 38 18 c74 35 125 131 113
214 -3 22 -16 64 -30 94 -65 142 -217 227 -407 227 -100 0 -169 -18 -257 -66
l-63 -34 0 86 c0 274 -155 566 -386 725 -67 46 -198 105 -289 129 -108 29
-347 37 -450 14z m450 -44 c323 -87 555 -335 630 -673 13 -59 16 -108 13 -193
-2 -63 -1 -114 3 -114 3 0 12 7 20 16 26 31 103 77 168 100 87 31 220 33 313
4 155 -48 270 -190 255 -316 -14 -127 -146 -198 -266 -144 -46 21 -101 26
-130 11 -21 -12 -76 -89 -69 -97 3 -3 33 2 66 10 276 72 607 -96 693 -351 29
-86 31 -220 5 -308 -61 -206 -212 -359 -406 -410 -71 -19 -194 -19 -256 0 -27
8 -50 15 -51 15 -2 0 0 -39 3 -87 14 -213 -80 -412 -249 -522 -110 -71 -162
-86 -312 -86 -147 0 -207 17 -290 81 -25 19 -48 34 -51 34 -4 0 -4 -20 -1 -45
3 -30 20 -71 49 -118 47 -76 68 -126 68 -161 0 -110 -102 -196 -218 -182 -70
8 -124 33 -185 83 l-48 40 -37 -35 c-45 -43 -122 -80 -185 -88 -118 -16 -233
93 -212 203 3 19 28 79 55 132 42 82 56 128 51 163 -1 5 -21 -7 -46 -26 -122
-93 -337 -116 -495 -52 -234 94 -372 316 -357 573 3 51 4 93 2 93 -2 0 -30 -7
-62 -15 -172 -45 -361 10 -493 144 -109 110 -169 243 -177 397 -7 114 17 201
78 294 71 105 217 203 351 235 72 17 232 19 297 4 24 -5 46 -7 49 -4 9 8 -80
95 -104 101 -11 3 -36 -4 -55 -15 -103 -60 -234 -27 -285 71 -39 76 2 216 88
293 90 82 255 128 383 107 76 -12 172 -55 229 -101 38 -30 63 -41 51 -21 -3 6
-6 65 -6 133 0 141 20 232 75 352 114 247 340 431 601 489 102 23 342 15 450
-14z m-1512 -1337 c15 -17 13 -18 -36 -14 -49 3 -50 4 -26 17 32 18 43 17 62
-3z m2627 -3 c11 -7 6 -10 -20 -10 -19 0 -50 -4 -69 -10 -33 -9 -33 -9 -16 10
20 22 79 27 105 10z"/>
<path d="M2790 3925 c-30 -8 -93 -34 -140 -57 -68 -33 -102 -58 -170 -127
-143 -143 -203 -286 -203 -481 -1 -179 41 -293 207 -564 72 -117 95 -161 86
-170 -6 -6 -44 -11 -88 -11 -138 0 -205 49 -343 252 -113 165 -185 245 -253
281 -43 22 -64 27 -132 27 -70 0 -88 -4 -140 -30 -42 -22 -65 -41 -79 -67 -11
-20 -16 -40 -12 -44 3 -4 33 5 66 20 72 32 121 33 187 2 73 -34 148 -114 252
-268 50 -73 115 -161 146 -195 31 -33 56 -64 56 -67 0 -3 -72 -6 -160 -6
l-160 0 -47 34 c-61 44 -110 64 -186 76 -125 20 -291 -30 -387 -116 -120 -109
-133 -304 -29 -464 48 -74 114 -124 203 -151 114 -36 211 -15 312 67 l41 34
158 0 158 0 -59 -59 c-129 -127 -175 -298 -125 -460 86 -275 453 -361 617
-144 57 75 64 187 17 252 -27 37 -99 71 -151 71 -42 0 -102 -23 -102 -39 0 -5
20 -16 45 -25 133 -51 107 -198 -42 -230 -72 -16 -171 43 -214 127 -80 156 24
377 224 475 64 32 65 32 220 32 l155 0 -20 -52 c-15 -39 -21 -77 -21 -143 -1
-104 16 -174 100 -425 53 -160 54 -168 51 -256 -4 -85 -7 -96 -52 -187 -27
-54 -46 -100 -43 -103 12 -13 67 19 105 60 73 79 122 192 122 278 0 22 -23
143 -52 271 -66 297 -74 416 -34 502 l25 56 88 -3 87 -3 23 -65 c36 -102 31
-169 -27 -400 -27 -109 -54 -231 -60 -270 -19 -137 20 -268 108 -363 42 -44
113 -80 128 -64 3 3 -7 25 -24 49 -72 105 -98 194 -88 297 4 40 33 145 76 271
76 227 87 291 69 395 -20 118 -20 120 24 123 49 4 162 -13 224 -34 130 -44
304 -151 330 -204 29 -57 24 -172 -9 -236 -61 -116 -183 -166 -278 -113 -100
56 -90 164 19 214 47 21 50 28 19 49 -33 23 -106 20 -158 -6 -137 -70 -128
-254 18 -365 54 -41 108 -56 197 -56 97 1 170 30 245 100 176 163 173 435 -8
625 l-55 58 150 0 149 0 34 -35 c57 -59 112 -79 215 -79 77 -1 98 3 147 26
110 51 187 145 223 272 47 161 -34 315 -212 403 -65 32 -86 37 -163 41 -106 5
-173 -13 -262 -70 l-59 -38 -160 2 -160 3 49 62 c27 34 94 128 148 210 110
164 164 225 227 253 54 25 145 25 217 0 30 -10 57 -16 60 -14 3 3 -5 22 -16
42 -49 84 -199 120 -324 78 -72 -25 -129 -83 -254 -258 -162 -228 -243 -286
-414 -296 l-84 -5 25 49 c14 27 63 105 109 174 144 216 203 387 196 564 -13
289 -197 532 -473 623 -69 22 -101 27 -225 29 -106 3 -160 0 -200 -11z m468
-642 c32 -20 24 -25 -23 -12 -22 6 -65 9 -97 7 -45 -3 -55 -2 -47 8 22 27 124
25 167 -3z m-411 2 c2 -6 -32 -10 -88 -11 -80 -1 -88 1 -67 13 27 15 150 14
155 -2z m12 -115 c22 -10 55 -38 75 -61 l36 -42 40 45 c46 53 93 78 145 78
101 0 185 -60 203 -146 30 -141 -64 -264 -200 -264 -54 0 -94 24 -144 86 -21
27 -40 51 -42 54 -3 3 -9 -4 -16 -14 -95 -161 -278 -166 -359 -11 -50 98 -14
230 75 274 56 27 135 28 187 1z m-295 -780 c122 0 128 -1 114 -17 -8 -10 -23
-55 -33 -100 l-18 -82 -19 24 c-10 13 -27 27 -38 30 -10 3 -22 19 -25 36 -10
45 -45 63 -111 56 -133 -14 -200 -122 -160 -258 17 -61 43 -90 98 -114 75 -31
164 -13 218 45 23 25 32 29 52 21 12 -4 49 -11 80 -15 52 -7 60 -5 81 16 l23
23 26 -36 c60 -84 177 -91 218 -13 22 39 17 106 -9 142 -21 30 -21 31 -2 37
11 3 23 15 26 26 5 15 10 17 25 9 10 -6 27 -10 38 -10 17 0 20 -10 25 -93 3
-51 9 -100 12 -109 9 -22 52 -39 81 -32 34 9 44 32 44 102 l0 59 61 -31 c55
-28 64 -36 84 -84 12 -29 29 -62 38 -73 17 -19 13 -19 -211 -20 -1116 -5
-1453 -5 -1457 1 -2 4 0 21 4 38 12 41 -4 108 -36 150 -55 72 -137 96 -209 61
-60 -28 -58 -49 4 -49 67 0 87 -17 86 -72 -1 -56 -25 -92 -75 -112 -54 -22
-96 -20 -149 8 -57 29 -97 85 -112 157 -10 49 -9 63 6 104 23 59 66 108 125
143 45 26 50 27 261 33 118 4 325 5 460 3 135 -2 303 -4 374 -4z m1854 -11
c96 -21 180 -91 201 -166 22 -78 6 -179 -36 -225 -39 -43 -91 -60 -170 -56
-66 3 -76 6 -104 35 -43 43 -53 119 -19 153 19 19 29 21 76 15 64 -8 71 6 22
44 -69 55 -189 31 -246 -49 -45 -61 -49 -113 -17 -192 7 -17 -2 -18 -102 -18
-61 0 -184 3 -275 7 l-165 6 15 27 c15 26 14 32 -13 99 -28 72 -28 72 -12 125
21 66 21 95 0 118 -35 39 -93 18 -117 -42 l-16 -40 -30 15 c-24 13 -30 22 -30
49 0 59 -22 68 -150 64 -103 -3 -113 -5 -131 -27 -18 -23 -20 -23 -53 -7 -41
19 -68 20 -119 2 -36 -13 -37 -13 -43 10 -7 26 -47 52 -86 56 -13 2 189 5 447
8 573 7 1115 2 1173 -11z m-1606 -29 c68 -19 59 -84 -11 -78 -44 4 -53 -14
-13 -24 35 -9 46 -31 31 -60 -9 -17 -18 -19 -50 -15 -39 5 -40 5 -43 -35 -1
-7 12 -15 28 -18 37 -6 55 -33 40 -57 -10 -15 -24 -17 -75 -15 -97 5 -99 9
-65 149 41 167 39 163 83 163 21 0 55 -5 75 -10z m533 -65 c0 -26 -5 -31 -36
-39 l-35 -9 0 -116 c1 -109 0 -116 -19 -119 -41 -5 -48 12 -56 125 -4 59 -8
109 -8 111 -1 1 -14 2 -29 2 -31 0 -52 16 -52 40 0 34 22 41 130 38 l105 -3 0
-30z m-841 9 c35 -34 11 -64 -51 -64 -63 0 -87 -27 -81 -91 7 -64 20 -79 74
-79 45 0 84 25 84 54 0 12 -6 12 -29 3 -51 -19 -89 16 -57 52 22 24 102 55
122 47 24 -9 47 -75 39 -115 -14 -76 -74 -121 -162 -121 -98 0 -148 56 -148
165 0 80 21 121 77 148 43 21 112 22 132 1z m530 -6 c31 -13 42 -43 25 -64
-10 -12 -23 -14 -55 -9 -57 8 -64 -9 -15 -40 65 -40 86 -98 56 -154 -24 -48
-81 -55 -136 -18 -45 30 -61 74 -34 93 26 19 32 18 57 -11 22 -25 48 -33 48
-15 0 6 -10 18 -22 28 -75 61 -82 70 -82 105 0 74 84 119 158 85z m525 -12 c9
-11 7 -29 -11 -79 l-22 -65 27 -66 c15 -37 27 -73 27 -81 0 -18 -34 -37 -53
-29 -13 4 -51 79 -69 134 -3 8 -23 21 -44 29 -80 28 -105 61 -68 92 13 10 21
10 47 0 59 -24 66 -24 73 -5 26 73 34 84 57 84 14 0 30 -6 36 -14z m-1146
-116 c-4 -31 -1 -46 13 -62 19 -21 19 -21 -3 -9 -19 9 -23 20 -23 55 0 36 6
56 16 56 1 0 0 -18 -3 -40z m440 -48 c-17 -17 -19 -17 -35 3 -15 18 -15 21 5
40 l22 20 13 -22 c11 -19 10 -25 -5 -41z"/>
<path d="M2757 2952 c-10 -10 -17 -31 -17 -46 0 -32 40 -76 70 -76 25 0 70 42
70 65 0 20 -19 57 -34 67 -21 14 -73 8 -89 -10z"/>
<path d="M3100 2957 c-49 -25 -52 -107 -5 -129 34 -15 72 -2 90 32 21 40 19
57 -10 85 -27 28 -39 30 -75 12z"/>
</g>
</svg>
